<svg width="33" height="33" viewBox="0 0 33 33" fill="none" xmlns="http://www.w3.org/2000/svg">
<path d="M31.2103 0.553223H1.75117C1.04271 0.553223 0.470337 1.12559 0.470337 1.83405V31.2932C0.470337 32.0016 1.04271 32.574 1.75117 32.574H31.2103C31.9187 32.574 32.4911 32.0016 32.4911 31.2932V1.83405C32.4911 1.12559 31.9187 0.553223 31.2103 0.553223ZM27.5119 9.89929H24.9542C22.9489 9.89929 22.5607 10.8519 22.5607 12.2528V15.3388H27.3478L26.7234 20.17H22.5607V32.574H17.5694V20.174H13.3947V15.3388H17.5694V11.7765C17.5694 7.64182 20.0951 5.38836 23.7855 5.38836C25.5546 5.38836 27.0716 5.52045 27.5159 5.58048V9.89929H27.5119Z" fill="white"/>
</svg>
