<svg width="33" height="33" viewBox="0 0 33 33" fill="none" xmlns="http://www.w3.org/2000/svg">
<path d="M31.1981 0.553223H1.73896C1.0305 0.553223 0.45813 1.12559 0.45813 1.83405V31.2932C0.45813 32.0016 1.0305 32.574 1.73896 32.574H31.1981C31.9065 32.574 32.4789 32.0016 32.4789 31.2932V1.83405C32.4789 1.12559 31.9065 0.553223 31.1981 0.553223ZM9.95629 27.8389H5.20521V12.557H9.95629V27.8389ZM7.58275 10.4677C7.03811 10.4677 6.50569 10.3061 6.05283 10.0036C5.59997 9.70097 5.24701 9.27089 5.03859 8.7677C4.83016 8.26451 4.77562 7.71081 4.88188 7.17663C4.98813 6.64245 5.25041 6.15177 5.63553 5.76665C6.02066 5.38152 6.51133 5.11925 7.04552 5.013C7.5797 4.90674 8.13339 4.96127 8.63658 5.1697C9.13977 5.37813 9.56985 5.73109 9.87244 6.18395C10.175 6.63681 10.3365 7.16922 10.3365 7.71387C10.3325 9.23486 9.09974 10.4677 7.58275 10.4677ZM27.7438 27.8389H22.9968V20.4061C22.9968 18.633 22.9647 16.3555 20.5272 16.3555C18.0576 16.3555 17.6773 18.2847 17.6773 20.278V27.8389H12.9342V12.557H17.4892V14.6464H17.5532C18.1856 13.4456 19.7346 12.1768 22.0481 12.1768C26.8593 12.1768 27.7438 15.3428 27.7438 19.4575V27.8389Z" fill="white"/>
</svg>
