<svg version="1.0" xmlns="http://www.w3.org/2000/svg" width="50" height="50" viewBox="0 0 4000 4000">
  <defs>
    <linearGradient id="myGradient" x1="0%" y1="0%" x2="0%" y2="100%">
      <stop offset="0%" style="stop-color:#4452fe;stop-opacity:1" />
      <stop offset="100%" style="stop-color:#30144f;stop-opacity:1" />
    </linearGradient>
  </defs>
  <g transform="translate(-300, -3148) scale(1)" fill="url(#myGradient)" stroke="#4452fe" stroke-width="15">
    <path d="M2385 6120 c-120 -21 -215 -74 -304 -171 -73 -80 -127 -178 -137 -251 -6 -40 -4 -45 21 -58 33 -18 108 -18 129 -1 8 7 24 31 36 54 55 104 141 183 245 225 77 32 176 27 251 -11 97 -49 190 -152 225 -249 l13 -38 74 0 74 0 -4 68 c-4 65 -14 100 -47 171 -22 47 -145 166 -201 195 -120 62 -259 86 -375 66z"/>
    <path d="M1478 5855 c-27 -18 -39 -34 -44 -60 -7 -37 1 -98 17 -127 10 -18 88 -67 194 -123 68 -36 96 -52 217 -126 85 -53 113 -71 245 -156 36 -24 67 -43 70 -43 6 0 137 -83 143 -91 3 -3 42 -28 88 -55 46 -27 105 -62 132 -79 27 -16 75 -45 106 -64 60 -35 158 -121 176 -156 36 -65 27 -133 -27 -220 -39 -61 -89 -106 -158 -142 -68 -34 -190 -44 -264 -19 -68 23 -160 101 -211 179 -69 106 -123 141 -182 117 -83 -34 -31 -191 111 -333 128 -129 328 -192 485 -153 150 36 225 77 319 171 86 87 119 172 120 310 0 79 -5 115 -24 172 -21 66 -30 79 -94 135 -38 35 -84 72 -102 83 -18 11 -58 37 -88 57 -31 20 -87 54 -124 74 -37 21 -80 47 -94 59 -15 12 -42 28 -60 35 -19 7 -53 29 -76 47 -24 19 -123 83 -220 142 -98 59 -212 128 -254 154 -41 25 -100 59 -130 75 -45 23 -54 33 -57 57 -1 17 -5 40 -7 52 -12 54 -141 71 -207 28z"/>
    <path d="M1986 4978 c-16 -6 -63 -32 -105 -59 -157 -99 -267 -157 -311 -164 -77 -12 -122 -48 -137 -105 -19 -72 14 -134 83 -159 50 -18 98 -7 136 33 40 41 112 91 198 138 134 73 167 92 223 130 31 21 57 43 57 49 0 25 -33 109 -48 122 -24 22 -62 28 -96 15z"/>
  </g>
</svg>
