<svg width="35" height="28" viewBox="0 0 35 28" fill="none" xmlns="http://www.w3.org/2000/svg">
<path d="M34.145 3.24877C32.9202 3.77711 31.5873 4.15736 30.2144 4.30546C31.6398 3.45865 32.7072 2.12084 33.2164 0.543014C31.8788 1.33869 30.4136 1.89663 28.8855 2.19208C28.2469 1.50935 27.4745 0.965448 26.6165 0.594277C25.7585 0.223107 24.8332 0.0326195 23.8983 0.0346846C20.1159 0.0346846 17.0739 3.10067 17.0739 6.86312C17.0739 7.39146 17.1379 7.9198 17.242 8.42813C11.5783 8.13194 6.52705 5.42618 3.16887 1.28349C2.55697 2.32863 2.23632 3.51865 2.24026 4.72973C2.24026 7.09927 3.44505 9.18862 5.28224 10.4174C4.19955 10.3748 3.14222 10.0772 2.19624 9.54886V9.63291C2.19624 12.9511 4.54176 15.7009 7.66779 16.3333C7.08084 16.4857 6.47704 16.5637 5.87062 16.5654C5.42633 16.5654 5.00606 16.5214 4.58178 16.4613C5.44634 19.1671 7.96398 21.1324 10.9619 21.1964C8.6164 23.0336 5.67849 24.1143 2.48843 24.1143C1.91605 24.1143 1.38771 24.0943 0.839355 24.0303C3.86532 25.9715 7.45565 27.0922 11.3222 27.0922C23.8743 27.0922 30.7428 16.6935 30.7428 7.66764C30.7428 7.37145 30.7428 7.07525 30.7227 6.77906C32.0516 5.80643 33.2164 4.60165 34.145 3.24877Z" fill="white"/>
</svg>
